<?xml version="1.0" encoding="UTF-8"?><svg xmlns:svg="http://www.w3.org/2000/svg" xmlns="http://www.w3.org/2000/svg" xmlns:xlink="http://www.w3.org/1999/xlink" version="2.0" width="1200" height="2020" ><style >
svg {
  font-family: Helvetica, Arial, sans-serif;
  font-size: 11px;
}
rect {
  stroke-linecap: butt;
  stroke-width: 3;
  stroke: #fff;
/*  stroke-opacity: 1; */
}
rect:hover {
  stroke: #fff;
/*  stroke-opacity: 1; /*
}
polygon { fill: #000; }</style><defs ><polygon id="ahead" points="0 0, -12 4, -12 -4" /><filter id="glow" x="0" y="0" ><feGaussianBlur in="SourceAlpha" stdDeviation="2" result="blurred" /><feFlood flood-color="#fff" /><feComposite operator="in" in2="blurred" /><feComponentTransfer ><feFuncA type="linear" slope="10" intercept="0" /></feComponentTransfer><feMerge ><feMergeNode /><feMergeNode in="SourceGraphic" /></feMerge></filter></defs><g ><text x="20.689655" y="20.0" text-anchor="middle" alignment-baseline="middle" fill="#000" >c5</text><text x="20.689655" y="1020.0" text-anchor="middle" alignment-baseline="middle" fill="#aaa" >c5</text><text x="62.068966" y="20.0" text-anchor="middle" alignment-baseline="middle" fill="#000" >c6</text><text x="62.068966" y="1020.0" text-anchor="middle" alignment-baseline="middle" fill="#aaa" >c6</text><text x="103.44827" y="20.0" text-anchor="middle" alignment-baseline="middle" fill="#000" >c7</text><text x="103.44827" y="1020.0" text-anchor="middle" alignment-baseline="middle" fill="#aaa" >c7</text><text x="144.82759" y="20.0" text-anchor="middle" alignment-baseline="middle" fill="#000" >c8</text><text x="144.82759" y="1020.0" text-anchor="middle" alignment-baseline="middle" fill="#aaa" >c8</text><text x="186.2069" y="20.0" text-anchor="middle" alignment-baseline="middle" fill="#000" >c9</text><text x="186.2069" y="1020.0" text-anchor="middle" alignment-baseline="middle" fill="#aaa" >c9</text><text x="227.58621" y="20.0" text-anchor="middle" alignment-baseline="middle" fill="#000" >c10</text><text x="227.58621" y="1020.0" text-anchor="middle" alignment-baseline="middle" fill="#aaa" >c10</text><text x="268.9655" y="20.0" text-anchor="middle" alignment-baseline="middle" fill="#000" >c11</text><text x="268.9655" y="1020.0" text-anchor="middle" alignment-baseline="middle" fill="#aaa" >c11</text><text x="310.34482" y="20.0" text-anchor="middle" alignment-baseline="middle" fill="#000" >c12</text><text x="310.34482" y="1020.0" text-anchor="middle" alignment-baseline="middle" fill="#aaa" >c12</text><text x="351.72415" y="20.0" text-anchor="middle" alignment-baseline="middle" fill="#000" >c13</text><text x="351.72415" y="1020.0" text-anchor="middle" alignment-baseline="middle" fill="#aaa" >c13</text><text x="393.10345" y="20.0" text-anchor="middle" alignment-baseline="middle" fill="#000" >c14</text><text x="393.10345" y="1020.0" text-anchor="middle" alignment-baseline="middle" fill="#aaa" >c14</text><text x="434.48276" y="20.0" text-anchor="middle" alignment-baseline="middle" fill="#000" >c15</text><text x="434.48276" y="1020.0" text-anchor="middle" alignment-baseline="middle" fill="#aaa" >c15</text><text x="475.86206" y="20.0" text-anchor="middle" alignment-baseline="middle" fill="#000" >c16</text><text x="475.86206" y="1020.0" text-anchor="middle" alignment-baseline="middle" fill="#aaa" >c16</text><text x="517.2414" y="20.0" text-anchor="middle" alignment-baseline="middle" fill="#000" >c17</text><text x="517.2414" y="1020.0" text-anchor="middle" alignment-baseline="middle" fill="#aaa" >c17</text><text x="558.62067" y="20.0" text-anchor="middle" alignment-baseline="middle" fill="#000" >c18</text><text x="558.62067" y="1020.0" text-anchor="middle" alignment-baseline="middle" fill="#aaa" >c18</text><text x="600.0" y="20.0" text-anchor="middle" alignment-baseline="middle" fill="#000" >c19</text><text x="600.0" y="1020.0" text-anchor="middle" alignment-baseline="middle" fill="#aaa" >c19</text><text x="641.37933" y="20.0" text-anchor="middle" alignment-baseline="middle" fill="#000" >c20</text><text x="641.37933" y="1020.0" text-anchor="middle" alignment-baseline="middle" fill="#aaa" >c20</text><text x="682.7586" y="20.0" text-anchor="middle" alignment-baseline="middle" fill="#000" >c21</text><text x="682.7586" y="1020.0" text-anchor="middle" alignment-baseline="middle" fill="#aaa" >c21</text><text x="724.13794" y="20.0" text-anchor="middle" alignment-baseline="middle" fill="#000" >c22</text><text x="724.13794" y="1020.0" text-anchor="middle" alignment-baseline="middle" fill="#aaa" >c22</text><text x="765.5172" y="20.0" text-anchor="middle" alignment-baseline="middle" fill="#000" >c23</text><text x="765.5172" y="1020.0" text-anchor="middle" alignment-baseline="middle" fill="#aaa" >c23</text><text x="806.89655" y="20.0" text-anchor="middle" alignment-baseline="middle" fill="#000" >c24</text><text x="806.89655" y="1020.0" text-anchor="middle" alignment-baseline="middle" fill="#aaa" >c24</text><text x="848.2759" y="20.0" text-anchor="middle" alignment-baseline="middle" fill="#000" >c25</text><text x="848.2759" y="1020.0" text-anchor="middle" alignment-baseline="middle" fill="#aaa" >c25</text><text x="889.65515" y="20.0" text-anchor="middle" alignment-baseline="middle" fill="#000" >c26</text><text x="889.65515" y="1020.0" text-anchor="middle" alignment-baseline="middle" fill="#aaa" >c26</text><text x="931.0345" y="20.0" text-anchor="middle" alignment-baseline="middle" fill="#000" >c27</text><text x="931.0345" y="1020.0" text-anchor="middle" alignment-baseline="middle" fill="#aaa" >c27</text><text x="972.4138" y="20.0" text-anchor="middle" alignment-baseline="middle" fill="#000" >c28</text><text x="972.4138" y="1020.0" text-anchor="middle" alignment-baseline="middle" fill="#aaa" >c28</text><text x="1013.7931" y="20.0" text-anchor="middle" alignment-baseline="middle" fill="#000" >n0</text><text x="1013.7931" y="1020.0" text-anchor="middle" alignment-baseline="middle" fill="#aaa" >n0</text><text x="1055.1724" y="20.0" text-anchor="middle" alignment-baseline="middle" fill="#000" >n1</text><text x="1055.1724" y="1020.0" text-anchor="middle" alignment-baseline="middle" fill="#aaa" >n1</text><text x="1096.5518" y="20.0" text-anchor="middle" alignment-baseline="middle" fill="#000" >n2</text><text x="1096.5518" y="1020.0" text-anchor="middle" alignment-baseline="middle" fill="#aaa" >n2</text><text x="1137.931" y="20.0" text-anchor="middle" alignment-baseline="middle" fill="#000" >n3</text><text x="1137.931" y="1020.0" text-anchor="middle" alignment-baseline="middle" fill="#aaa" >n3</text><text x="1179.3103" y="20.0" text-anchor="middle" alignment-baseline="middle" fill="#000" >n4</text><text x="1179.3103" y="1020.0" text-anchor="middle" alignment-baseline="middle" fill="#aaa" >n4</text></g><g ><line stroke="#ccc" x1="20.689655" y1="30.0" x2="20.689655" y2="1930.0" /><line stroke="#ccc" x1="62.068966" y1="30.0" x2="62.068966" y2="1930.0" /><line stroke="#ccc" x1="103.44827" y1="30.0" x2="103.44827" y2="1930.0" /><line stroke="#ccc" x1="144.82759" y1="30.0" x2="144.82759" y2="1930.0" /><line stroke="#ccc" x1="186.2069" y1="30.0" x2="186.2069" y2="1930.0" /><line stroke="#ccc" x1="227.58621" y1="30.0" x2="227.58621" y2="1930.0" /><line stroke="#ccc" x1="268.9655" y1="30.0" x2="268.9655" y2="1930.0" /><line stroke="#ccc" x1="310.34482" y1="30.0" x2="310.34482" y2="1930.0" /><line stroke="#ccc" x1="351.72415" y1="30.0" x2="351.72415" y2="1930.0" /><line stroke="#ccc" x1="393.10345" y1="30.0" x2="393.10345" y2="1930.0" /><line stroke="#ccc" x1="434.48276" y1="30.0" x2="434.48276" y2="1930.0" /><line stroke="#ccc" x1="475.86206" y1="30.0" x2="475.86206" y2="1930.0" /><line stroke="#ccc" x1="517.2414" y1="30.0" x2="517.2414" y2="1930.0" /><line stroke="#ccc" x1="558.62067" y1="30.0" x2="558.62067" y2="1930.0" /><line stroke="#ccc" x1="600.0" y1="30.0" x2="600.0" y2="1930.0" /><line stroke="#ccc" x1="641.37933" y1="30.0" x2="641.37933" y2="1930.0" /><line stroke="#ccc" x1="682.7586" y1="30.0" x2="682.7586" y2="1930.0" /><line stroke="#ccc" x1="724.13794" y1="30.0" x2="724.13794" y2="1930.0" /><line stroke="#ccc" x1="765.5172" y1="30.0" x2="765.5172" y2="1930.0" /><line stroke="#ccc" x1="806.89655" y1="30.0" x2="806.89655" y2="1930.0" /><line stroke="#ccc" x1="848.2759" y1="30.0" x2="848.2759" y2="1930.0" /><line stroke="#ccc" x1="889.65515" y1="30.0" x2="889.65515" y2="1930.0" /><line stroke="#ccc" x1="931.0345" y1="30.0" x2="931.0345" y2="1930.0" /><line stroke="#ccc" x1="972.4138" y1="30.0" x2="972.4138" y2="1930.0" /><line stroke="#ccc" x1="1013.7931" y1="30.0" x2="1013.7931" y2="1930.0" /><line stroke="#ccc" x1="1055.1724" y1="30.0" x2="1055.1724" y2="1930.0" /><line stroke="#ccc" x1="1096.5518" y1="30.0" x2="1096.5518" y2="1930.0" /><line stroke="#ccc" x1="1137.931" y1="30.0" x2="1137.931" y2="1930.0" /><line stroke="#ccc" x1="1179.3103" y1="30.0" x2="1179.3103" y2="1930.0" /></g><g ><g transform="translate(20.689655 50.0) rotate(2.306499965757851) " ><rect x="0" y="-2.5" height="5" width="989.9086646339249" fill="#81BFFC" ><title >c5 → n0 {:type "topology", :topology {"n0" ["n3" "n1"], "n1" ["n4" "n2" "n0"], "n2" ["n1"], "n3" ["n0" "n4"], "n4" ["n1" "n3"]}, :msg_id 1}</title></rect><use xlink:href="#ahead" x="993.9086646339249" y="0" /><text text-anchor="middle" x="496.95433231696245" y="-4" transform="" filter="url(#glow)" style="fill: #fff" >topology {:topology {"n0" ["n3" "n1"], "n1" ["n…</text><text text-anchor="middle" x="496.95433231696245" y="-4" transform="" >topology {:topology {"n0" ["n3" "n1"], "n1" ["n…</text></g><g transform="translate(103.44827 70.0) rotate(3.4574172467082467) " ><rect x="0" y="-2.5" height="5" width="990.914334067264" fill="#81BFFC" ><title >c7 → n2 {:type "topology", :topology {"n0" ["n3" "n1"], "n1" ["n4" "n2" "n0"], "n2" ["n1"], "n3" ["n0" "n4"], "n4" ["n1" "n3"]}, :msg_id 1}</title></rect><use xlink:href="#ahead" x="994.914334067264" y="0" /><text text-anchor="middle" x="497.457167033632" y="-4" transform="" filter="url(#glow)" style="fill: #fff" >topology {:topology {"n0" ["n3" "n1"], "n1" ["n…</text><text text-anchor="middle" x="497.457167033632" y="-4" transform="" >topology {:topology {"n0" ["n3" "n1"], "n1" ["n…</text></g><g transform="translate(144.82759 110.0) rotate(2.3064999569077194) " ><rect x="0" y="-2.5" height="5" width="989.9086684455317" fill="#81BFFC" ><title >c8 → n3 {:type "topology", :topology {"n0" ["n3" "n1"], "n1" ["n4" "n2" "n0"], "n2" ["n1"], "n3" ["n0" "n4"], "n4" ["n1" "n3"]}, :msg_id 1}</title></rect><use xlink:href="#ahead" x="993.9086684455317" y="0" /><text text-anchor="middle" x="496.95433422276585" y="-4" transform="" filter="url(#glow)" style="fill: #fff" >topology {:topology {"n0" ["n3" "n1"], "n1" ["n…</text><text text-anchor="middle" x="496.95433422276585" y="-4" transform="" >topology {:topology {"n0" ["n3" "n1"], "n1" ["n…</text></g><g transform="translate(62.068966 170.0) rotate(1.1537174404889063) " ><rect x="0" y="-2.5" height="5" width="989.3047658531666" fill="#81BFFC" ><title >c6 → n1 {:type "topology", :topology {"n0" ["n3" "n1"], "n1" ["n4" "n2" "n0"], "n2" ["n1"], "n3" ["n0" "n4"], "n4" ["n1" "n3"]}, :msg_id 1}</title></rect><use xlink:href="#ahead" x="993.3047658531666" y="0" /><text text-anchor="middle" x="496.6523829265833" y="-4" transform="" filter="url(#glow)" style="fill: #fff" >topology {:topology {"n0" ["n3" "n1"], "n1" ["n…</text><text text-anchor="middle" x="496.6523829265833" y="-4" transform="" >topology {:topology {"n0" ["n3" "n1"], "n1" ["n…</text></g><g transform="translate(1096.5518 250.0) rotate(178.8462826614114) " ><rect x="0" y="-2.5" height="5" width="989.304853573417" fill="#81BFFC" ><title >n2 → c7 {:in_reply_to 1, :type "topology_ok"}</title></rect><use xlink:href="#ahead" x="993.304853573417" y="0" /><text text-anchor="middle" x="496.6524267867085" y="-4" transform="rotate(180 496.6524267867085 0)" filter="url(#glow)" style="fill: #fff" >topology_ok {}</text><text text-anchor="middle" x="496.6524267867085" y="-4" transform="rotate(180 496.6524267867085 0)" >topology_ok {}</text></g><g transform="translate(1137.931 290.0) rotate(178.846282608246) " ><rect x="0" y="-2.5" height="5" width="989.3048078063298" fill="#81BFFC" ><title >n3 → c8 {:in_reply_to 1, :type "topology_ok"}</title></rect><use xlink:href="#ahead" x="993.3048078063298" y="0" /><text text-anchor="middle" x="496.6524039031649" y="-4" transform="rotate(180 496.6524039031649 0)" filter="url(#glow)" style="fill: #fff" >topology_ok {}</text><text text-anchor="middle" x="496.6524039031649" y="-4" transform="rotate(180 496.6524039031649 0)" >topology_ok {}</text></g><g transform="translate(1055.1724 230.0) rotate(174.2500144965201) " ><rect x="0" y="-2.5" height="5" width="994.1254219118027" fill="#81BFFC" ><title >n1 → c6 {:in_reply_to 1, :type "topology_ok"}</title></rect><use xlink:href="#ahead" x="998.1254219118027" y="0" /><text text-anchor="middle" x="499.06271095590137" y="-4" transform="rotate(180 499.06271095590137 0)" filter="url(#glow)" style="fill: #fff" >topology_ok {}</text><text text-anchor="middle" x="499.06271095590137" y="-4" transform="rotate(180 499.06271095590137 0)" >topology_ok {}</text></g><g transform="translate(186.2069 350.0) rotate(1.1537174271975617) " ><rect x="0" y="-2.5" height="5" width="989.3047772949384" fill="#81BFFC" ><title >c9 → n4 {:type "topology", :topology {"n0" ["n3" "n1"], "n1" ["n4" "n2" "n0"], "n2" ["n1"], "n3" ["n0" "n4"], "n4" ["n1" "n3"]}, :msg_id 1}</title></rect><use xlink:href="#ahead" x="993.3047772949384" y="0" /><text text-anchor="middle" x="496.6523886474692" y="-4" transform="" filter="url(#glow)" style="fill: #fff" >topology {:topology {"n0" ["n3" "n1"], "n1" ["n…</text><text text-anchor="middle" x="496.6523886474692" y="-4" transform="" >topology {:topology {"n0" ["n3" "n1"], "n1" ["n…</text></g><g transform="translate(1013.7931 210.0) rotate(169.7266692291887) " ><rect x="0" y="-2.5" height="5" width="1005.284119380857" fill="#81BFFC" ><title >n0 → c5 {:in_reply_to 1, :type "topology_ok"}</title></rect><use xlink:href="#ahead" x="1009.284119380857" y="0" /><text text-anchor="middle" x="504.6420596904285" y="-4" transform="rotate(180 504.6420596904285 0)" filter="url(#glow)" style="fill: #fff" >topology_ok {}</text><text text-anchor="middle" x="504.6420596904285" y="-4" transform="rotate(180 504.6420596904285 0)" >topology_ok {}</text></g><g transform="translate(1179.3103 410.0) rotate(178.84628257280244) " ><rect x="0" y="-2.5" height="5" width="989.3047772949384" fill="#81BFFC" ><title >n4 → c9 {:in_reply_to 1, :type "topology_ok"}</title></rect><use xlink:href="#ahead" x="993.3047772949384" y="0" /><text text-anchor="middle" x="496.6523886474692" y="-4" transform="rotate(180 496.6523886474692 0)" filter="url(#glow)" style="fill: #fff" >topology_ok {}</text><text text-anchor="middle" x="496.6523886474692" y="-4" transform="rotate(180 496.6523886474692 0)" >topology_ok {}</text></g><g transform="translate(227.58621 450.0) rotate(1.457209972088624) " ><rect x="0" y="-2.5" height="5" width="782.4612234914172" fill="#81BFFC" ><title >c10 → n0 {:type "broadcast", :message 0, :msg_id 1}</title></rect><use xlink:href="#ahead" x="786.4612234914172" y="0" /><text text-anchor="middle" x="393.2306117457086" y="-4" transform="" filter="url(#glow)" style="fill: #fff" >broadcast {:message 0}</text><text text-anchor="middle" x="393.2306117457086" y="-4" transform="" >broadcast {:message 0}</text></g><g transform="translate(268.9655 490.0) rotate(1.4572100286276186) " ><rect x="0" y="-2.5" height="5" width="782.4611929837085" fill="#81BFFC" ><title >c11 → n1 {:type "read", :msg_id 1}</title></rect><use xlink:href="#ahead" x="786.4611929837085" y="0" /><text text-anchor="middle" x="393.23059649185427" y="-4" transform="" filter="url(#glow)" style="fill: #fff" >read {}</text><text text-anchor="middle" x="393.23059649185427" y="-4" transform="" >read {}</text></g><g transform="translate(1055.1724 530.0) rotate(178.5427899713724) " ><rect x="0" y="-2.5" height="5" width="782.4611929837085" fill="#81BFFC" ><title >n1 → c11 {:in_reply_to 1, :messages nil, :msg_id 1, :type "read_ok"}</title></rect><use xlink:href="#ahead" x="786.4611929837085" y="0" /><text text-anchor="middle" x="393.23059649185427" y="-4" transform="rotate(180 393.23059649185427 0)" filter="url(#glow)" style="fill: #fff" >read_ok {:messages nil}</text><text text-anchor="middle" x="393.23059649185427" y="-4" transform="rotate(180 393.23059649185427 0)" >read_ok {:messages nil}</text></g><g transform="translate(310.34482 570.0) rotate(1.4572098590106481) " ><rect x="0" y="-2.5" height="5" width="782.4612845068343" fill="#81BFFC" ><title >c12 → n2 {:type "broadcast", :message 1, :msg_id 1}</title></rect><use xlink:href="#ahead" x="786.4612845068343" y="0" /><text text-anchor="middle" x="393.23064225341716" y="-4" transform="" filter="url(#glow)" style="fill: #fff" >broadcast {:message 1}</text><text text-anchor="middle" x="393.23064225341716" y="-4" transform="" >broadcast {:message 1}</text></g><g transform="translate(351.72415 610.0) rotate(1.457209972088624) " ><rect x="0" y="-2.5" height="5" width="782.4612234914172" fill="#81BFFC" ><title >c13 → n3 {:type "read", :msg_id 1}</title></rect><use xlink:href="#ahead" x="786.4612234914172" y="0" /><text text-anchor="middle" x="393.2306117457086" y="-4" transform="" filter="url(#glow)" style="fill: #fff" >read {}</text><text text-anchor="middle" x="393.2306117457086" y="-4" transform="" >read {}</text></g><g transform="translate(1137.931 650.0) rotate(178.54279002791137) " ><rect x="0" y="-2.5" height="5" width="782.4612234914172" fill="#81BFFC" ><title >n3 → c13 {:in_reply_to 1, :messages nil, :msg_id 1, :type "read_ok"}</title></rect><use xlink:href="#ahead" x="786.4612234914172" y="0" /><text text-anchor="middle" x="393.2306117457086" y="-4" transform="rotate(180 393.2306117457086 0)" filter="url(#glow)" style="fill: #fff" >read_ok {:messages nil}</text><text text-anchor="middle" x="393.2306117457086" y="-4" transform="rotate(180 393.2306117457086 0)" >read_ok {:messages nil}</text></g><g transform="translate(393.10345 690.0) rotate(1.4572100286276186) " ><rect x="0" y="-2.5" height="5" width="782.4611929837085" fill="#81BFFC" ><title >c14 → n4 {:type "read", :msg_id 1}</title></rect><use xlink:href="#ahead" x="786.4611929837085" y="0" /><text text-anchor="middle" x="393.23059649185427" y="-4" transform="" filter="url(#glow)" style="fill: #fff" >read {}</text><text text-anchor="middle" x="393.23059649185427" y="-4" transform="" >read {}</text></g><g transform="translate(1179.3103 730.0) rotate(178.5427899713724) " ><rect x="0" y="-2.5" height="5" width="782.4611929837085" fill="#81BFFC" ><title >n4 → c14 {:in_reply_to 1, :messages nil, :msg_id 1, :type "read_ok"}</title></rect><use xlink:href="#ahead" x="786.4611929837085" y="0" /><text text-anchor="middle" x="393.23059649185427" y="-4" transform="rotate(180 393.23059649185427 0)" filter="url(#glow)" style="fill: #fff" >read_ok {:messages nil}</text><text text-anchor="middle" x="393.23059649185427" y="-4" transform="rotate(180 393.23059649185427 0)" >read_ok {:messages nil}</text></g><g transform="translate(268.9655 770.0) rotate(1.4572100286276186) " ><rect x="0" y="-2.5" height="5" width="782.4611929837085" fill="#81BFFC" ><title >c11 → n1 {:type "read", :msg_id 2}</title></rect><use xlink:href="#ahead" x="786.4611929837085" y="0" /><text text-anchor="middle" x="393.23059649185427" y="-4" transform="" filter="url(#glow)" style="fill: #fff" >read {}</text><text text-anchor="middle" x="393.23059649185427" y="-4" transform="" >read {}</text></g><g transform="translate(1055.1724 810.0) rotate(178.5427899713724) " ><rect x="0" y="-2.5" height="5" width="782.4611929837085" fill="#81BFFC" ><title >n1 → c11 {:in_reply_to 2, :messages nil, :msg_id 2, :type "read_ok"}</title></rect><use xlink:href="#ahead" x="786.4611929837085" y="0" /><text text-anchor="middle" x="393.23059649185427" y="-4" transform="rotate(180 393.23059649185427 0)" filter="url(#glow)" style="fill: #fff" >read_ok {:messages nil}</text><text text-anchor="middle" x="393.23059649185427" y="-4" transform="rotate(180 393.23059649185427 0)" >read_ok {:messages nil}</text></g><g transform="translate(268.9655 850.0) rotate(1.4572100286276186) " ><rect x="0" y="-2.5" height="5" width="782.4611929837085" fill="#81BFFC" ><title >c11 → n1 {:type "read", :msg_id 3}</title></rect><use xlink:href="#ahead" x="786.4611929837085" y="0" /><text text-anchor="middle" x="393.23059649185427" y="-4" transform="" filter="url(#glow)" style="fill: #fff" >read {}</text><text text-anchor="middle" x="393.23059649185427" y="-4" transform="" >read {}</text></g><g transform="translate(1055.1724 890.0) rotate(178.5427899713724) " ><rect x="0" y="-2.5" height="5" width="782.4611929837085" fill="#81BFFC" ><title >n1 → c11 {:in_reply_to 3, :messages nil, :msg_id 3, :type "read_ok"}</title></rect><use xlink:href="#ahead" x="786.4611929837085" y="0" /><text text-anchor="middle" x="393.23059649185427" y="-4" transform="rotate(180 393.23059649185427 0)" filter="url(#glow)" style="fill: #fff" >read_ok {:messages nil}</text><text text-anchor="middle" x="393.23059649185427" y="-4" transform="rotate(180 393.23059649185427 0)" >read_ok {:messages nil}</text></g><g transform="translate(268.9655 930.0) rotate(1.4572100286276186) " ><rect x="0" y="-2.5" height="5" width="782.4611929837085" fill="#81BFFC" ><title >c11 → n1 {:type "broadcast", :message 2, :msg_id 4}</title></rect><use xlink:href="#ahead" x="786.4611929837085" y="0" /><text text-anchor="middle" x="393.23059649185427" y="-4" transform="" filter="url(#glow)" style="fill: #fff" >broadcast {:message 2}</text><text text-anchor="middle" x="393.23059649185427" y="-4" transform="" >broadcast {:message 2}</text></g><g transform="translate(351.72415 970.0) rotate(1.457209972088624) " ><rect x="0" y="-2.5" height="5" width="782.4612234914172" fill="#81BFFC" ><title >c13 → n3 {:type "broadcast", :message 3, :msg_id 2}</title></rect><use xlink:href="#ahead" x="786.4612234914172" y="0" /><text text-anchor="middle" x="393.2306117457086" y="-4" transform="" filter="url(#glow)" style="fill: #fff" >broadcast {:message 3}</text><text text-anchor="middle" x="393.2306117457086" y="-4" transform="" >broadcast {:message 3}</text></g><g transform="translate(393.10345 1010.0) rotate(1.4572100286276186) " ><rect x="0" y="-2.5" height="5" width="782.4611929837085" fill="#81BFFC" ><title >c14 → n4 {:type "read", :msg_id 2}</title></rect><use xlink:href="#ahead" x="786.4611929837085" y="0" /><text text-anchor="middle" x="393.23059649185427" y="-4" transform="" filter="url(#glow)" style="fill: #fff" >read {}</text><text text-anchor="middle" x="393.23059649185427" y="-4" transform="" >read {}</text></g><g transform="translate(1179.3103 1050.0) rotate(178.5427899713724) " ><rect x="0" y="-2.5" height="5" width="782.4611929837085" fill="#81BFFC" ><title >n4 → c14 {:in_reply_to 2, :messages nil, :msg_id 2, :type "read_ok"}</title></rect><use xlink:href="#ahead" x="786.4611929837085" y="0" /><text text-anchor="middle" x="393.23059649185427" y="-4" transform="rotate(180 393.23059649185427 0)" filter="url(#glow)" style="fill: #fff" >read_ok {:messages nil}</text><text text-anchor="middle" x="393.23059649185427" y="-4" transform="rotate(180 393.23059649185427 0)" >read_ok {:messages nil}</text></g><g transform="translate(393.10345 1090.0) rotate(1.4572100286276186) " ><rect x="0" y="-2.5" height="5" width="782.4611929837085" fill="#81BFFC" ><title >c14 → n4 {:type "broadcast", :message 4, :msg_id 3}</title></rect><use xlink:href="#ahead" x="786.4611929837085" y="0" /><text text-anchor="middle" x="393.23059649185427" y="-4" transform="" filter="url(#glow)" style="fill: #fff" >broadcast {:message 4}</text><text text-anchor="middle" x="393.23059649185427" y="-4" transform="" >broadcast {:message 4}</text></g><g transform="translate(434.48276 1130.0) rotate(1.9772832971304963) " ><rect x="0" y="-2.5" height="5" width="575.6554685435901" fill="#81BFFC" ><title >c15 → n0 {:type "read", :msg_id 1}</title></rect><use xlink:href="#ahead" x="579.6554685435901" y="0" /><text text-anchor="middle" x="289.82773427179507" y="-4" transform="" filter="url(#glow)" style="fill: #fff" >read {}</text><text text-anchor="middle" x="289.82773427179507" y="-4" transform="" >read {}</text></g><g transform="translate(475.86206 1170.0) rotate(1.8455586611156665) " ><rect x="0" y="-2.5" height="5" width="617.0118358708578" fill="#81BFFC" ><title >c16 → n2 {:type "broadcast", :message 5, :msg_id 1}</title></rect><use xlink:href="#ahead" x="621.0118358708578" y="0" /><text text-anchor="middle" x="310.5059179354289" y="-4" transform="" filter="url(#glow)" style="fill: #fff" >broadcast {:message 5}</text><text text-anchor="middle" x="310.5059179354289" y="-4" transform="" >broadcast {:message 5}</text></g><g transform="translate(517.2414 1210.0) rotate(2.129247223094079) " ><rect x="0" y="-2.5" height="5" width="534.302635759511" fill="#81BFFC" ><title >c17 → n1 {:type "broadcast", :message 6, :msg_id 1}</title></rect><use xlink:href="#ahead" x="538.302635759511" y="0" /><text text-anchor="middle" x="269.1513178797555" y="-4" transform="" filter="url(#glow)" style="fill: #fff" >broadcast {:message 6}</text><text text-anchor="middle" x="269.1513178797555" y="-4" transform="" >broadcast {:message 6}</text></g><g transform="translate(558.62067 1250.0) rotate(1.9772831930515717) " ><rect x="0" y="-2.5" height="5" width="575.6554990429976" fill="#81BFFC" ><title >c18 → n3 {:type "read", :msg_id 1}</title></rect><use xlink:href="#ahead" x="579.6554990429976" y="0" /><text text-anchor="middle" x="289.8277495214988" y="-4" transform="" filter="url(#glow)" style="fill: #fff" >read {}</text><text text-anchor="middle" x="289.8277495214988" y="-4" transform="" >read {}</text></g><g transform="translate(600.0 1290.0) rotate(1.9772834012094314) " ><rect x="0" y="-2.5" height="5" width="575.6554380441826" fill="#81BFFC" ><title >c19 → n4 {:type "broadcast", :message 7, :msg_id 1}</title></rect><use xlink:href="#ahead" x="579.6554380441826" y="0" /><text text-anchor="middle" x="289.8277190220913" y="-4" transform="" filter="url(#glow)" style="fill: #fff" >broadcast {:message 7}</text><text text-anchor="middle" x="289.8277190220913" y="-4" transform="" >broadcast {:message 7}</text></g><g transform="translate(434.48276 1330.0) rotate(1.9772832971304963) " ><rect x="0" y="-2.5" height="5" width="575.6554685435901" fill="#81BFFC" ><title >c15 → n0 {:type "broadcast", :message 8, :msg_id 2}</title></rect><use xlink:href="#ahead" x="579.6554685435901" y="0" /><text text-anchor="middle" x="289.82773427179507" y="-4" transform="" filter="url(#glow)" style="fill: #fff" >broadcast {:message 8}</text><text text-anchor="middle" x="289.82773427179507" y="-4" transform="" >broadcast {:message 8}</text></g><g transform="translate(641.37933 1370.0) rotate(2.515923462123602) " ><rect x="0" y="-2.5" height="5" width="451.61160636892754" fill="#81BFFC" ><title >c20 → n2 {:type "broadcast", :message 9, :msg_id 1}</title></rect><use xlink:href="#ahead" x="455.61160636892754" y="0" /><text text-anchor="middle" x="227.80580318446377" y="-4" transform="" filter="url(#glow)" style="fill: #fff" >broadcast {:message 9}</text><text text-anchor="middle" x="227.80580318446377" y="-4" transform="" >broadcast {:message 9}</text></g><g transform="translate(682.7586 1410.0) rotate(3.074042861107902) " ><rect x="0" y="-2.5" height="5" width="368.9504077546264" fill="#81BFFC" ><title >c21 → n1 {:type "broadcast", :message 10, :msg_id 1}</title></rect><use xlink:href="#ahead" x="372.9504077546264" y="0" /><text text-anchor="middle" x="186.4752038773132" y="-4" transform="" filter="url(#glow)" style="fill: #fff" >broadcast {:message 10}</text><text text-anchor="middle" x="186.4752038773132" y="-4" transform="" >broadcast {:message 10}</text></g><g transform="translate(558.62067 1450.0) rotate(1.9772831930515717) " ><rect x="0" y="-2.5" height="5" width="575.6554990429976" fill="#81BFFC" ><title >c18 → n3 {:type "read", :msg_id 2}</title></rect><use xlink:href="#ahead" x="579.6554990429976" y="0" /><text text-anchor="middle" x="289.8277495214988" y="-4" transform="" filter="url(#glow)" style="fill: #fff" >read {}</text><text text-anchor="middle" x="289.8277495214988" y="-4" transform="" >read {}</text></g><g transform="translate(724.13794 1490.0) rotate(2.515923799056323) " ><rect x="0" y="-2.5" height="5" width="451.6115453926055" fill="#81BFFC" ><title >c22 → n4 {:type "broadcast", :message 11, :msg_id 1}</title></rect><use xlink:href="#ahead" x="455.6115453926055" y="0" /><text text-anchor="middle" x="227.80577269630274" y="-4" transform="" filter="url(#glow)" style="fill: #fff" >broadcast {:message 11}</text><text text-anchor="middle" x="227.80577269630274" y="-4" transform="" >broadcast {:message 11}</text></g><g transform="translate(765.5172 1530.0) rotate(4.605548114782776) " ><rect x="0" y="-2.5" height="5" width="245.08013177825106" fill="#81BFFC" ><title >c23 → n0 {:type "read", :msg_id 1}</title></rect><use xlink:href="#ahead" x="249.08013177825106" y="0" /><text text-anchor="middle" x="124.54006588912553" y="-4" transform="" filter="url(#glow)" style="fill: #fff" >read {}</text><text text-anchor="middle" x="124.54006588912553" y="-4" transform="" >read {}</text></g><g transform="translate(806.89655 1570.0) rotate(3.9498674781882395) " ><rect x="0" y="-2.5" height="5" width="286.34486747977286" fill="#81BFFC" ><title >c24 → n2 {:type "read", :msg_id 1}</title></rect><use xlink:href="#ahead" x="290.34486747977286" y="0" /><text text-anchor="middle" x="145.17243373988643" y="-4" transform="" filter="url(#glow)" style="fill: #fff" >read {}</text><text text-anchor="middle" x="145.17243373988643" y="-4" transform="" >read {}</text></g><g transform="translate(848.2759 1610.0) rotate(5.521438200884219) " ><rect x="0" y="-2.5" height="5" width="203.86090360318994" fill="#81BFFC" ><title >c25 → n1 {:type "broadcast", :message 12, :msg_id 1}</title></rect><use xlink:href="#ahead" x="207.86090360318994" y="0" /><text text-anchor="middle" x="103.93045180159497" y="-4" transform="" filter="url(#glow)" style="fill: #fff" >broadcast {:message 12}</text><text text-anchor="middle" x="103.93045180159497" y="-4" transform="" >broadcast {:message 12}</text></g><g transform="translate(558.62067 1650.0) rotate(1.9772831930515717) " ><rect x="0" y="-2.5" height="5" width="575.6554990429976" fill="#81BFFC" ><title >c18 → n3 {:type "read", :msg_id 3}</title></rect><use xlink:href="#ahead" x="579.6554990429976" y="0" /><text text-anchor="middle" x="289.8277495214988" y="-4" transform="" filter="url(#glow)" style="fill: #fff" >read {}</text><text text-anchor="middle" x="289.8277495214988" y="-4" transform="" >read {}</text></g><g transform="translate(889.65515 1690.0) rotate(3.9498683078564945) " ><rect x="0" y="-2.5" height="5" width="286.34480658959325" fill="#81BFFC" ><title >c26 → n4 {:type "broadcast", :message 13, :msg_id 1}</title></rect><use xlink:href="#ahead" x="290.34480658959325" y="0" /><text text-anchor="middle" x="145.17240329479662" y="-4" transform="" filter="url(#glow)" style="fill: #fff" >broadcast {:message 13}</text><text text-anchor="middle" x="145.17240329479662" y="-4" transform="" >broadcast {:message 13}</text></g><g transform="translate(806.89655 1750.0) rotate(3.9498674781882395) " ><rect x="0" y="-2.5" height="5" width="286.34486747977286" fill="#81BFFC" ><title >c24 → n2 {:type "read", :msg_id 2}</title></rect><use xlink:href="#ahead" x="290.34486747977286" y="0" /><text text-anchor="middle" x="145.17243373988643" y="-4" transform="" filter="url(#glow)" style="fill: #fff" >read {}</text><text text-anchor="middle" x="145.17243373988643" y="-4" transform="" >read {}</text></g><g transform="translate(931.0345 1730.0) rotate(25.796036009500668) " ><rect x="0" y="-2.5" height="5" width="133.877528474057" fill="#81BFFC" ><title >c27 → n1 {:type "read", :msg_id 1}</title></rect><use xlink:href="#ahead" x="137.877528474057" y="0" /><text text-anchor="middle" x="68.9387642370285" y="-4" transform="" filter="url(#glow)" style="fill: #fff" >read {}</text><text text-anchor="middle" x="68.9387642370285" y="-4" transform="" >read {}</text></g><g transform="translate(558.62067 1810.0) rotate(1.9772831930515717) " ><rect x="0" y="-2.5" height="5" width="575.6554990429976" fill="#81BFFC" ><title >c18 → n3 {:type "read", :msg_id 4}</title></rect><use xlink:href="#ahead" x="579.6554990429976" y="0" /><text text-anchor="middle" x="289.8277495214988" y="-4" transform="" filter="url(#glow)" style="fill: #fff" >read {}</text><text text-anchor="middle" x="289.8277495214988" y="-4" transform="" >read {}</text></g><g transform="translate(972.4138 1850.0) rotate(5.521438200884219) " ><rect x="0" y="-2.5" height="5" width="203.86090360318994" fill="#81BFFC" ><title >c28 → n4 {:type "read", :msg_id 1}</title></rect><use xlink:href="#ahead" x="207.86090360318994" y="0" /><text text-anchor="middle" x="103.93045180159497" y="-4" transform="" filter="url(#glow)" style="fill: #fff" >read {}</text><text text-anchor="middle" x="103.93045180159497" y="-4" transform="" >read {}</text></g><g transform="translate(765.5172 1890.0) rotate(4.605548114782776) " ><rect x="0" y="-2.5" height="5" width="245.08013177825106" fill="#81BFFC" ><title >c23 → n0 {:type "read", :msg_id 2}</title></rect><use xlink:href="#ahead" x="249.08013177825106" y="0" /><text text-anchor="middle" x="124.54006588912553" y="-4" transform="" filter="url(#glow)" style="fill: #fff" >read {}</text><text text-anchor="middle" x="124.54006588912553" y="-4" transform="" >read {}</text></g></g></svg>